ply
format ascii 1.0
comment Created by Blender 2.81 (sub 16) - www.blender.org, source file: ''
element vertex 442
property float x
property float y
property float z
property float nx
property float ny
property float nz
element face 264
property list uchar uint vertex_indices
end_header
-0.000068 -0.098800 0.000539 -0.000000 -1.000000 -0.000000
0.039932 -0.098800 0.000539 -0.000000 -1.000000 -0.000000
0.038312 -0.098800 0.011808 -0.000000 -1.000000 -0.000000
0.038312 -0.098800 -0.010730 -0.000000 -1.000000 0.000000
0.033582 -0.098800 -0.021087 -0.000000 -1.000000 0.000000
0.026126 -0.098800 -0.029691 -0.000000 -1.000000 0.000000
0.016548 -0.098800 -0.035846 -0.000000 -1.000000 0.000000
0.005624 -0.098800 -0.039054 -0.000000 -1.000000 0.000000
-0.005761 -0.098800 -0.039054 0.000000 -1.000000 0.000000
-0.016685 -0.098800 -0.035846 0.000000 -1.000000 0.000000
-0.026263 -0.098800 -0.029691 0.000000 -1.000000 0.000000
-0.033718 -0.098800 -0.021086 0.000000 -1.000000 0.000000
-0.038448 -0.098800 -0.010730 0.000000 -1.000000 0.000000
-0.040068 -0.098800 0.000539 0.000000 -1.000000 0.000000
-0.038448 -0.098800 0.011808 0.000000 -1.000000 0.000000
-0.033718 -0.098800 0.022165 0.000000 -1.000000 0.000000
-0.026263 -0.098800 0.030769 0.000000 -1.000000 0.000000
-0.016685 -0.098800 0.036924 0.000000 -1.000000 0.000000
-0.005761 -0.098800 0.040132 0.000000 -1.000000 0.000000
0.005624 -0.098800 0.040132 0.000000 -1.000000 -0.000000
0.016548 -0.098800 0.036924 0.000000 -1.000000 -0.000000
0.026126 -0.098800 0.030769 0.000000 -1.000000 -0.000000
0.033582 -0.098800 0.022165 0.000000 -1.000000 -0.000000
-0.000068 0.041200 0.000539 0.000000 1.000000 0.000000
0.038312 0.041200 0.011808 0.000000 1.000000 0.000000
0.039932 0.041200 0.000539 0.000000 1.000000 0.000000
0.038312 0.041200 -0.010730 0.000000 1.000000 -0.000000
0.033582 0.041200 -0.021087 0.000000 1.000000 -0.000000
0.026126 0.041200 -0.029691 0.000000 1.000000 -0.000000
0.016548 0.041200 -0.035846 0.000000 1.000000 -0.000000
0.005624 0.041200 -0.039054 0.000000 1.000000 -0.000000
-0.005761 0.041200 -0.039054 0.000000 1.000000 -0.000000
-0.016685 0.041200 -0.035846 -0.000000 1.000000 0.000000
-0.026263 0.041200 -0.029691 -0.000000 1.000000 0.000000
-0.033718 0.041200 -0.021086 -0.000000 1.000000 0.000000
-0.038448 0.041200 -0.010730 -0.000000 1.000000 0.000000
-0.040068 0.041200 0.000539 -0.000000 1.000000 0.000000
-0.038448 0.041200 0.011808 -0.000000 1.000000 0.000000
-0.033718 0.041200 0.022165 0.000000 1.000000 0.000000
-0.026263 0.041200 0.030769 0.000000 1.000000 0.000000
-0.016685 0.041200 0.036924 0.000000 1.000000 0.000000
-0.005761 0.041200 0.040132 0.000000 1.000000 0.000000
0.005624 0.041200 0.040132 0.000000 1.000000 0.000000
0.016548 0.041200 0.036924 0.000000 1.000000 0.000000
0.026126 0.041200 0.030769 0.000000 1.000000 0.000000
0.033582 0.041200 0.022165 0.000000 1.000000 0.000000
0.038312 -0.098800 0.011808 0.989824 0.000000 0.142295
0.039932 0.041200 0.000539 0.989824 0.000000 0.142295
0.038312 0.041200 0.011808 0.989824 0.000000 0.142295
0.039932 -0.098800 0.000539 0.989824 0.000000 0.142295
0.039932 -0.098800 0.000539 0.989824 0.000000 -0.142295
0.038312 0.041200 -0.010730 0.989824 0.000000 -0.142295
0.039932 0.041200 0.000539 0.989824 0.000000 -0.142295
0.038312 -0.098800 -0.010730 0.989824 0.000000 -0.142295
0.038312 -0.098800 -0.010730 0.909628 0.000000 -0.415424
0.033582 0.041200 -0.021087 0.909628 0.000000 -0.415424
0.038312 0.041200 -0.010730 0.909628 0.000000 -0.415424
0.033582 -0.098800 -0.021087 0.909628 0.000000 -0.415424
0.033582 -0.098800 -0.021087 0.755724 0.000000 -0.654890
0.026126 0.041200 -0.029691 0.755724 0.000000 -0.654890
0.033582 0.041200 -0.021087 0.755724 0.000000 -0.654890
0.026126 -0.098800 -0.029691 0.755724 0.000000 -0.654890
0.016548 -0.098800 -0.035846 0.540615 0.000000 -0.841270
0.026126 0.041200 -0.029691 0.540615 0.000000 -0.841270
0.026126 -0.098800 -0.029691 0.540615 0.000000 -0.841270
0.016548 0.041200 -0.035846 0.540615 0.000000 -0.841270
0.005624 -0.098800 -0.039054 0.281767 0.000000 -0.959483
0.016548 0.041200 -0.035846 0.281767 0.000000 -0.959483
0.016548 -0.098800 -0.035846 0.281767 0.000000 -0.959483
0.005624 0.041200 -0.039054 0.281767 0.000000 -0.959483
-0.005761 -0.098800 -0.039054 -0.000000 0.000000 -1.000000
0.005624 0.041200 -0.039054 -0.000000 0.000000 -1.000000
0.005624 -0.098800 -0.039054 -0.000000 0.000000 -1.000000
-0.005761 0.041200 -0.039054 0.000000 0.000000 -1.000000
-0.016685 -0.098800 -0.035846 -0.281767 0.000000 -0.959483
-0.005761 0.041200 -0.039054 -0.281767 0.000000 -0.959483
-0.005761 -0.098800 -0.039054 -0.281767 0.000000 -0.959483
-0.016685 0.041200 -0.035846 -0.281767 -0.000000 -0.959483
-0.026263 -0.098800 -0.029691 -0.540615 0.000000 -0.841270
-0.016685 0.041200 -0.035846 -0.540615 0.000000 -0.841270
-0.016685 -0.098800 -0.035846 -0.540615 0.000000 -0.841270
-0.026263 0.041200 -0.029691 -0.540615 -0.000000 -0.841270
-0.026263 -0.098800 -0.029691 -0.755805 0.000000 -0.654797
-0.033718 0.041200 -0.021086 -0.755805 0.000000 -0.654797
-0.026263 0.041200 -0.029691 -0.755805 0.000000 -0.654797
-0.033718 -0.098800 -0.021086 -0.755805 0.000000 -0.654797
-0.033718 -0.098800 -0.021086 -0.909613 0.000000 -0.415457
-0.038448 0.041200 -0.010730 -0.909613 0.000000 -0.415457
-0.033718 0.041200 -0.021086 -0.909613 0.000000 -0.415457
-0.038448 -0.098800 -0.010730 -0.909613 0.000000 -0.415457
-0.038448 -0.098800 -0.010730 -0.989824 0.000000 -0.142295
-0.040068 0.041200 0.000539 -0.989824 0.000000 -0.142295
-0.038448 0.041200 -0.010730 -0.989824 0.000000 -0.142295
-0.040068 -0.098800 0.000539 -0.989824 0.000000 -0.142295
-0.040068 -0.098800 0.000539 -0.989824 0.000000 0.142295
-0.038448 0.041200 0.011808 -0.989824 0.000000 0.142295
-0.040068 0.041200 0.000539 -0.989824 0.000000 0.142295
-0.038448 -0.098800 0.011808 -0.989824 0.000000 0.142295
-0.038448 -0.098800 0.011808 -0.909628 0.000000 0.415423
-0.033718 0.041200 0.022165 -0.909628 0.000000 0.415423
-0.038448 0.041200 0.011808 -0.909628 0.000000 0.415423
-0.033718 -0.098800 0.022165 -0.909628 0.000000 0.415423
-0.033718 -0.098800 0.022165 -0.755767 0.000000 0.654840
-0.026263 0.041200 0.030769 -0.755767 0.000000 0.654840
-0.033718 0.041200 0.022165 -0.755767 0.000000 0.654840
-0.026263 -0.098800 0.030769 -0.755767 0.000000 0.654840
-0.026263 0.041200 0.030769 -0.540616 0.000000 0.841270
-0.016685 -0.098800 0.036924 -0.540616 0.000000 0.841270
-0.016685 0.041200 0.036924 -0.540616 0.000000 0.841270
-0.026263 -0.098800 0.030769 -0.540616 0.000000 0.841270
-0.016685 0.041200 0.036924 -0.281767 0.000000 0.959483
-0.005761 -0.098800 0.040132 -0.281767 0.000000 0.959483
-0.005761 0.041200 0.040132 -0.281767 0.000000 0.959483
-0.016685 -0.098800 0.036924 -0.281767 0.000000 0.959483
-0.005761 0.041200 0.040132 0.000000 0.000000 1.000000
0.005624 -0.098800 0.040132 0.000000 0.000000 1.000000
0.005624 0.041200 0.040132 0.000000 0.000000 1.000000
-0.005761 -0.098800 0.040132 -0.000000 0.000000 1.000000
0.005624 0.041200 0.040132 0.281767 0.000000 0.959483
0.016548 -0.098800 0.036924 0.281767 0.000000 0.959483
0.016548 0.041200 0.036924 0.281767 0.000000 0.959483
0.005624 -0.098800 0.040132 0.281767 -0.000000 0.959483
0.016548 0.041200 0.036924 0.540616 0.000000 0.841270
0.026126 -0.098800 0.030769 0.540616 0.000000 0.841270
0.026126 0.041200 0.030769 0.540616 0.000000 0.841270
0.016548 -0.098800 0.036924 0.540616 -0.000000 0.841270
0.026126 -0.098800 0.030769 0.755724 0.000000 0.654890
0.033582 0.041200 0.022165 0.755724 0.000000 0.654890
0.026126 0.041200 0.030769 0.755724 0.000000 0.654890
0.033582 -0.098800 0.022165 0.755724 0.000000 0.654890
0.033582 -0.098800 0.022165 0.909628 0.000000 0.415424
0.038312 0.041200 0.011808 0.909628 0.000000 0.415424
0.033582 0.041200 0.022165 0.909628 0.000000 0.415424
0.038312 -0.098800 0.011808 0.909628 0.000000 0.415424
0.033722 0.041200 0.021086 0.815947 0.442436 0.372131
0.018458 0.082800 0.005095 0.815947 0.442436 0.372131
0.016096 0.082800 0.010274 0.815947 0.442436 0.372131
0.018458 0.082800 0.005095 0.815706 0.442515 0.372565
0.033722 0.041200 0.021086 0.815706 0.442515 0.372565
0.038452 0.041200 0.010730 0.815706 0.442515 0.372565
0.026266 0.041200 0.029691 0.678264 0.440379 0.588238
0.016096 0.082800 0.010274 0.678264 0.440379 0.588238
0.012365 0.082800 0.014576 0.678264 0.440379 0.588238
0.016096 0.082800 0.010274 0.678555 0.440316 0.587950
0.026266 0.041200 0.029691 0.678555 0.440316 0.587950
0.033722 0.041200 0.021086 0.678555 0.440316 0.587950
0.012365 0.082800 0.014576 0.486067 0.437335 0.756622
0.016685 0.041200 0.035846 0.486067 0.437335 0.756622
0.026266 0.041200 0.029691 0.486067 0.437335 0.756622
0.016685 0.041200 0.035846 0.486272 0.437300 0.756511
0.012365 0.082800 0.014576 0.486272 0.437300 0.756511
0.007578 0.082800 0.017653 0.486272 0.437300 0.756511
0.007578 0.082800 0.017653 0.253870 0.433679 0.864565
0.005760 0.041200 0.039054 0.253870 0.433679 0.864565
0.016685 0.041200 0.035846 0.253870 0.433679 0.864565
0.005760 0.041200 0.039054 0.254023 0.433655 0.864532
0.007578 0.082800 0.017653 0.254023 0.433655 0.864532
0.002119 0.082800 0.019257 0.254023 0.433655 0.864532
-0.003577 0.082800 0.019257 0.000000 0.429712 0.902966
0.005760 0.041200 0.039054 0.000000 0.429712 0.902966
0.002119 0.082800 0.019257 0.000000 0.429712 0.902966
-0.005625 0.041200 0.039054 0.000000 0.429712 0.902966
-0.009036 0.082800 0.017653 -0.255089 0.425707 0.868161
-0.005625 0.041200 0.039054 -0.255089 0.425707 0.868161
-0.003577 0.082800 0.019257 -0.255089 0.425707 0.868161
-0.005625 0.041200 0.039054 -0.255067 0.425711 0.868165
-0.009036 0.082800 0.017653 -0.255067 0.425711 0.868165
-0.016544 0.041200 0.035846 -0.255067 0.425711 0.868165
-0.013823 0.082800 0.014576 -0.490209 0.421998 0.762635
-0.016544 0.041200 0.035846 -0.490209 0.421998 0.762635
-0.009036 0.082800 0.017653 -0.490209 0.421998 0.762635
-0.016544 0.041200 0.035846 -0.490039 0.422033 0.762725
-0.013823 0.082800 0.014576 -0.490039 0.422033 0.762725
-0.026124 0.041200 0.029691 -0.490039 0.422033 0.762725
-0.033580 0.041200 0.021086 -0.685914 0.418877 0.595033
-0.013823 0.082800 0.014576 -0.685914 0.418877 0.595033
-0.017555 0.082800 0.010274 -0.685914 0.418877 0.595033
-0.013823 0.082800 0.014576 -0.686234 0.418962 0.594604
-0.033580 0.041200 0.021086 -0.686234 0.418962 0.594604
-0.026124 0.041200 0.029691 -0.686234 0.418962 0.594604
-0.038310 0.041200 0.010730 -0.827108 0.416793 0.377062
-0.017555 0.082800 0.010274 -0.827108 0.416793 0.377062
-0.019916 0.082800 0.005095 -0.827108 0.416793 0.377062
-0.017555 0.082800 0.010274 -0.826884 0.416687 0.377671
-0.038310 0.041200 0.010730 -0.826884 0.416687 0.377671
-0.033580 0.041200 0.021086 -0.826884 0.416687 0.377671
-0.039929 0.041200 -0.000539 -0.900265 0.415507 0.129910
-0.019916 0.082800 0.005095 -0.900265 0.415507 0.129910
-0.020729 0.082800 -0.000539 -0.900265 0.415507 0.129910
-0.019916 0.082800 0.005095 -0.900303 0.415602 0.129345
-0.039929 0.041200 -0.000539 -0.900303 0.415602 0.129345
-0.038310 0.041200 0.010730 -0.900303 0.415602 0.129345
-0.038310 0.041200 -0.011808 -0.900212 0.415631 -0.129880
-0.020729 0.082800 -0.000539 -0.900212 0.415631 -0.129880
-0.019916 0.082800 -0.006174 -0.900212 0.415631 -0.129880
-0.020729 0.082800 -0.000539 -0.900332 0.415538 -0.129349
-0.038310 0.041200 -0.011808 -0.900332 0.415538 -0.129349
-0.039929 0.041200 -0.000539 -0.900332 0.415538 -0.129349
-0.033580 0.041200 -0.022165 -0.827137 0.416658 -0.377148
-0.019916 0.082800 -0.006174 -0.827137 0.416658 -0.377148
-0.017555 0.082800 -0.011352 -0.827137 0.416658 -0.377148
-0.019916 0.082800 -0.006174 -0.826869 0.416755 -0.377628
-0.033580 0.041200 -0.022165 -0.826869 0.416755 -0.377628
-0.038310 0.041200 -0.011808 -0.826869 0.416755 -0.377628
-0.026124 0.041200 -0.030769 -0.685872 0.418997 -0.594996
-0.017555 0.082800 -0.011352 -0.685872 0.418997 -0.594996
-0.013823 0.082800 -0.015654 -0.685872 0.418997 -0.594996
-0.017555 0.082800 -0.011352 -0.686218 0.418911 -0.594658
-0.026124 0.041200 -0.030769 -0.686218 0.418911 -0.594658
-0.033580 0.041200 -0.022165 -0.686218 0.418911 -0.594658
-0.016544 0.041200 -0.036924 -0.490328 0.421974 -0.762573
-0.013823 0.082800 -0.015654 -0.490328 0.421974 -0.762573
-0.009036 0.082800 -0.018732 -0.490328 0.421974 -0.762573
-0.013823 0.082800 -0.015654 -0.490039 0.422033 -0.762725
-0.016544 0.041200 -0.036924 -0.490039 0.422033 -0.762725
-0.026124 0.041200 -0.030769 -0.490039 0.422033 -0.762725
-0.005625 0.041200 -0.040132 -0.255091 0.425690 -0.868169
-0.009036 0.082800 -0.018732 -0.255091 0.425690 -0.868169
-0.003577 0.082800 -0.020336 -0.255091 0.425690 -0.868169
-0.009036 0.082800 -0.018732 -0.255069 0.425694 -0.868173
-0.005625 0.041200 -0.040132 -0.255069 0.425694 -0.868173
-0.016544 0.041200 -0.036924 -0.255069 0.425694 -0.868173
0.005760 0.041200 -0.040132 0.000000 0.429694 -0.902974
-0.003577 0.082800 -0.020336 0.000000 0.429694 -0.902974
0.002119 0.082800 -0.020336 0.000000 0.429694 -0.902974
-0.005625 0.041200 -0.040132 0.000000 0.429694 -0.902974
0.005760 0.041200 -0.040132 0.253872 0.433662 -0.864573
0.007578 0.082800 -0.018732 0.253872 0.433662 -0.864573
0.016685 0.041200 -0.036924 0.253872 0.433662 -0.864573
0.007578 0.082800 -0.018732 0.254025 0.433638 -0.864540
0.005760 0.041200 -0.040132 0.254025 0.433638 -0.864540
0.002119 0.082800 -0.020336 0.254025 0.433638 -0.864540
0.016685 0.041200 -0.036924 0.486067 0.437335 -0.756622
0.012365 0.082800 -0.015654 0.486067 0.437335 -0.756622
0.026266 0.041200 -0.030769 0.486067 0.437335 -0.756622
0.012365 0.082800 -0.015654 0.486389 0.437280 -0.756447
0.016685 0.041200 -0.036924 0.486389 0.437280 -0.756447
0.007578 0.082800 -0.018732 0.486389 0.437280 -0.756447
0.033722 0.041200 -0.022165 0.678293 0.440300 -0.588264
0.012365 0.082800 -0.015654 0.678293 0.440300 -0.588264
0.016096 0.082800 -0.011352 0.678293 0.440300 -0.588264
0.012365 0.082800 -0.015654 0.678504 0.440363 -0.587974
0.033722 0.041200 -0.022165 0.678504 0.440363 -0.587974
0.026266 0.041200 -0.030769 0.678504 0.440363 -0.587974
0.038452 0.041200 -0.011809 0.815872 0.442541 -0.372169
0.016096 0.082800 -0.011352 0.815872 0.442541 -0.372169
0.018458 0.082800 -0.006174 0.815872 0.442541 -0.372169
0.016096 0.082800 -0.011352 0.815727 0.442468 -0.372575
0.038452 0.041200 -0.011809 0.815727 0.442468 -0.372575
0.033722 0.041200 -0.022165 0.815727 0.442468 -0.372575
0.040071 0.041200 -0.000539 0.887072 0.443536 -0.127984
0.018458 0.082800 -0.006174 0.887072 0.443536 -0.127984
0.019271 0.082800 -0.000539 0.887072 0.443536 -0.127984
0.018458 0.082800 -0.006174 0.887105 0.443627 -0.127438
0.040071 0.041200 -0.000539 0.887105 0.443627 -0.127438
0.038452 0.041200 -0.011809 0.887105 0.443627 -0.127438
0.038452 0.041200 0.010730 0.887009 0.443657 0.127998
0.019271 0.082800 -0.000539 0.887009 0.443657 0.127998
0.018458 0.082800 0.005095 0.887009 0.443657 0.127998
0.019271 0.082800 -0.000539 0.887133 0.443566 0.127453
0.038452 0.041200 0.010730 0.887133 0.443566 0.127453
0.040071 0.041200 -0.000539 0.887133 0.443566 0.127453
-0.000729 0.082800 -0.000539 0.000000 1.000000 0.000000
0.016096 0.082800 0.010274 0.000000 1.000000 0.000000
0.018458 0.082800 0.005095 0.000000 1.000000 0.000000
0.012365 0.082800 0.014576 0.000000 1.000000 0.000000
0.007578 0.082800 0.017653 0.000000 1.000000 0.000000
0.002119 0.082800 0.019257 0.000000 1.000000 0.000000
-0.003577 0.082800 0.019257 0.000000 1.000000 0.000000
-0.009036 0.082800 0.017653 0.000000 1.000000 0.000000
-0.013823 0.082800 0.014576 0.000000 1.000000 0.000000
-0.017555 0.082800 0.010274 0.000000 1.000000 0.000000
-0.019916 0.082800 0.005095 0.000000 1.000000 0.000000
-0.020729 0.082800 -0.000539 -0.000000 1.000000 0.000000
-0.019916 0.082800 -0.006174 -0.000000 1.000000 0.000000
-0.017555 0.082800 -0.011352 -0.000000 1.000000 0.000000
-0.013823 0.082800 -0.015654 -0.000000 1.000000 0.000000
-0.009036 0.082800 -0.018732 -0.000000 1.000000 0.000000
-0.003577 0.082800 -0.020336 -0.000000 1.000000 0.000000
0.002119 0.082800 -0.020336 0.000000 1.000000 -0.000000
0.007578 0.082800 -0.018732 0.000000 1.000000 -0.000000
0.012365 0.082800 -0.015654 0.000000 1.000000 -0.000000
0.016096 0.082800 -0.011352 0.000000 1.000000 -0.000000
0.018458 0.082800 -0.006174 0.000000 1.000000 -0.000000
0.019271 0.082800 -0.000539 0.000000 1.000000 -0.000000
0.000071 0.041200 -0.000539 0.000000 -1.000000 -0.000000
0.038452 0.041200 0.010730 0.000000 -1.000000 -0.000000
0.033722 0.041200 0.021086 0.000000 -1.000000 -0.000000
0.026266 0.041200 0.029691 0.000000 -1.000000 -0.000000
0.016685 0.041200 0.035846 0.000000 -1.000000 -0.000000
0.005760 0.041200 0.039054 0.000000 -1.000000 -0.000000
-0.005625 0.041200 0.039054 0.000000 -1.000000 -0.000000
-0.016544 0.041200 0.035846 0.000000 -1.000000 0.000000
-0.026124 0.041200 0.029691 0.000000 -1.000000 0.000000
-0.033580 0.041200 0.021086 0.000000 -1.000000 0.000000
-0.038310 0.041200 0.010730 0.000000 -1.000000 0.000000
-0.039929 0.041200 -0.000539 0.000000 -1.000000 0.000000
-0.038310 0.041200 -0.011808 0.000000 -1.000000 0.000000
-0.033580 0.041200 -0.022165 0.000000 -1.000000 0.000000
-0.026124 0.041200 -0.030769 0.000000 -1.000000 0.000000
-0.016544 0.041200 -0.036924 0.000000 -1.000000 0.000000
-0.005625 0.041200 -0.040132 0.000000 -1.000000 0.000000
0.005760 0.041200 -0.040132 0.000000 -1.000000 0.000000
0.016685 0.041200 -0.036924 -0.000000 -1.000000 0.000000
0.026266 0.041200 -0.030769 -0.000000 -1.000000 0.000000
0.033722 0.041200 -0.022165 -0.000000 -1.000000 0.000000
0.038452 0.041200 -0.011809 -0.000000 -1.000000 0.000000
0.040071 0.041200 -0.000539 -0.000000 -1.000000 0.000000
0.018860 0.081426 0.012663 0.911234 0.000000 0.411889
0.021601 0.098800 0.006599 0.911234 0.000000 0.411889
0.018860 0.098800 0.012663 0.911234 0.000000 0.411889
0.021601 0.081426 0.006599 0.911234 0.000000 0.411889
0.014539 0.081426 0.017701 0.759054 0.000000 0.651027
0.018860 0.098800 0.012663 0.759054 0.000000 0.651027
0.014539 0.098800 0.017701 0.759054 0.000000 0.651027
0.018860 0.081426 0.012663 0.759054 0.000000 0.651027
0.008988 0.098800 0.021305 0.544548 0.000000 0.838730
0.014539 0.081426 0.017701 0.544548 0.000000 0.838730
0.014539 0.098800 0.017701 0.544548 0.000000 0.838730
0.008988 0.081426 0.021305 0.544548 -0.000000 0.838730
0.002656 0.098800 0.023183 0.284346 0.000000 0.958722
0.008988 0.081426 0.021305 0.284346 0.000000 0.958722
0.008988 0.098800 0.021305 0.284346 0.000000 0.958722
0.002656 0.081426 0.023183 0.284346 -0.000000 0.958722
-0.003942 0.098800 0.023183 0.000000 0.000000 1.000000
0.002656 0.081426 0.023183 0.000000 0.000000 1.000000
0.002656 0.098800 0.023183 0.000000 0.000000 1.000000
-0.003942 0.081426 0.023183 -0.000000 0.000000 1.000000
-0.010274 0.098800 0.021305 -0.284346 0.000000 0.958722
-0.003942 0.081426 0.023183 -0.284346 0.000000 0.958722
-0.003942 0.098800 0.023183 -0.284346 0.000000 0.958722
-0.010274 0.081426 0.021305 -0.284346 0.000000 0.958722
-0.015825 0.098800 0.017701 -0.544547 0.000000 0.838730
-0.010274 0.081426 0.021305 -0.544547 0.000000 0.838730
-0.010274 0.098800 0.021305 -0.544547 0.000000 0.838730
-0.015825 0.081426 0.017701 -0.544547 0.000000 0.838730
-0.020146 0.081426 0.012663 -0.759054 0.000000 0.651027
-0.015825 0.098800 0.017701 -0.759054 0.000000 0.651027
-0.020146 0.098800 0.012663 -0.759054 0.000000 0.651027
-0.015825 0.081426 0.017701 -0.759054 0.000000 0.651027
-0.022887 0.081426 0.006599 -0.911234 0.000000 0.411889
-0.020146 0.098800 0.012663 -0.911234 0.000000 0.411889
-0.022887 0.098800 0.006599 -0.911234 0.000000 0.411889
-0.020146 0.081426 0.012663 -0.911234 0.000000 0.411889
-0.023826 0.081426 0.000000 -0.990027 0.000000 0.140875
-0.022887 0.098800 0.006599 -0.990027 0.000000 0.140875
-0.023826 0.098800 0.000000 -0.990027 0.000000 0.140875
-0.022887 0.081426 0.006599 -0.990027 0.000000 0.140875
-0.022887 0.081426 -0.006599 -0.990027 0.000000 -0.140875
-0.023826 0.098800 0.000000 -0.990027 0.000000 -0.140875
-0.022887 0.098800 -0.006599 -0.990027 0.000000 -0.140875
-0.023826 0.081426 0.000000 -0.990027 0.000000 -0.140875
-0.020146 0.081426 -0.012662 -0.911209 0.000000 -0.411945
-0.022887 0.098800 -0.006599 -0.911209 0.000000 -0.411945
-0.020146 0.098800 -0.012662 -0.911209 0.000000 -0.411945
-0.022887 0.081426 -0.006599 -0.911209 0.000000 -0.411945
-0.015825 0.081426 -0.017700 -0.759054 0.000000 -0.651027
-0.020146 0.098800 -0.012662 -0.759054 0.000000 -0.651027
-0.015825 0.098800 -0.017700 -0.759054 0.000000 -0.651027
-0.020146 0.081426 -0.012662 -0.759054 0.000000 -0.651027
-0.015825 0.081426 -0.017700 -0.544654 0.000000 -0.838661
-0.010274 0.098800 -0.021305 -0.544654 0.000000 -0.838661
-0.010274 0.081426 -0.021305 -0.544654 0.000000 -0.838661
-0.015825 0.098800 -0.017700 -0.544654 -0.000000 -0.838661
-0.010274 0.081426 -0.021305 -0.284346 0.000000 -0.958722
-0.003942 0.098800 -0.023183 -0.284346 0.000000 -0.958722
-0.003942 0.081426 -0.023183 -0.284346 0.000000 -0.958722
-0.010274 0.098800 -0.021305 -0.284346 -0.000000 -0.958722
-0.003942 0.081426 -0.023183 -0.000000 0.000000 -1.000000
0.002656 0.098800 -0.023183 -0.000000 0.000000 -1.000000
0.002656 0.081426 -0.023183 -0.000000 0.000000 -1.000000
-0.003942 0.098800 -0.023183 0.000000 0.000000 -1.000000
0.002656 0.081426 -0.023183 0.284346 0.000000 -0.958722
0.008988 0.098800 -0.021305 0.284346 0.000000 -0.958722
0.008988 0.081426 -0.021305 0.284346 0.000000 -0.958722
0.002656 0.098800 -0.023183 0.284346 0.000000 -0.958722
0.008988 0.081426 -0.021305 0.544654 0.000000 -0.838661
0.014539 0.098800 -0.017700 0.544654 0.000000 -0.838661
0.014539 0.081426 -0.017700 0.544654 0.000000 -0.838661
0.008988 0.098800 -0.021305 0.544654 0.000000 -0.838661
0.018860 0.081426 -0.012662 0.759054 0.000000 -0.651027
0.014539 0.098800 -0.017700 0.759054 0.000000 -0.651027
0.018860 0.098800 -0.012662 0.759054 0.000000 -0.651027
0.014539 0.081426 -0.017700 0.759054 0.000000 -0.651027
0.021601 0.081426 -0.006599 0.911209 0.000000 -0.411945
0.018860 0.098800 -0.012662 0.911209 0.000000 -0.411945
0.021601 0.098800 -0.006599 0.911209 0.000000 -0.411945
0.018860 0.081426 -0.012662 0.911209 0.000000 -0.411945
0.022540 0.081426 0.000000 0.990027 0.000000 -0.140875
0.021601 0.098800 -0.006599 0.990027 0.000000 -0.140875
0.022540 0.098800 0.000000 0.990027 0.000000 -0.140875
0.021601 0.081426 -0.006599 0.990027 0.000000 -0.140875
0.021601 0.081426 0.006599 0.990027 0.000000 0.140875
0.022540 0.098800 0.000000 0.990027 0.000000 0.140875
0.021601 0.098800 0.006599 0.990027 0.000000 0.140875
0.022540 0.081426 0.000000 0.990027 0.000000 0.140875
-0.000643 0.098800 0.000000 0.000000 1.000000 0.000000
0.018860 0.098800 0.012663 0.000000 1.000000 0.000000
0.021601 0.098800 0.006599 0.000000 1.000000 0.000000
0.014539 0.098800 0.017701 0.000000 1.000000 0.000000
0.008988 0.098800 0.021305 0.000000 1.000000 0.000000
0.002656 0.098800 0.023183 0.000000 1.000000 0.000000
-0.003942 0.098800 0.023183 0.000000 1.000000 0.000000
-0.010274 0.098800 0.021305 0.000000 1.000000 0.000000
-0.015825 0.098800 0.017701 0.000000 1.000000 0.000000
-0.020146 0.098800 0.012663 0.000000 1.000000 0.000000
-0.022887 0.098800 0.006599 0.000000 1.000000 0.000000
-0.023826 0.098800 0.000000 -0.000000 1.000000 0.000000
-0.022887 0.098800 -0.006599 -0.000000 1.000000 0.000000
-0.020146 0.098800 -0.012662 -0.000000 1.000000 0.000000
-0.015825 0.098800 -0.017700 -0.000000 1.000000 0.000000
-0.010274 0.098800 -0.021305 -0.000000 1.000000 0.000000
-0.003942 0.098800 -0.023183 -0.000000 1.000000 0.000000
0.002656 0.098800 -0.023183 0.000000 1.000000 -0.000000
0.008988 0.098800 -0.021305 0.000000 1.000000 -0.000000
0.014539 0.098800 -0.017700 0.000000 1.000000 -0.000000
0.018860 0.098800 -0.012662 0.000000 1.000000 -0.000000
0.021601 0.098800 -0.006599 0.000000 1.000000 -0.000000
0.022540 0.098800 0.000000 0.000000 1.000000 -0.000000
-0.000643 0.081426 0.000000 0.000000 -1.000000 -0.000000
0.021601 0.081426 0.006599 0.000000 -1.000000 -0.000000
0.018860 0.081426 0.012663 0.000000 -1.000000 -0.000000
0.014539 0.081426 0.017701 0.000000 -1.000000 -0.000000
0.008988 0.081426 0.021305 0.000000 -1.000000 -0.000000
0.002656 0.081426 0.023183 0.000000 -1.000000 -0.000000
-0.003942 0.081426 0.023183 0.000000 -1.000000 -0.000000
-0.010274 0.081426 0.021305 0.000000 -1.000000 0.000000
-0.015825 0.081426 0.017701 0.000000 -1.000000 0.000000
-0.020146 0.081426 0.012663 0.000000 -1.000000 0.000000
-0.022887 0.081426 0.006599 0.000000 -1.000000 0.000000
-0.023826 0.081426 0.000000 0.000000 -1.000000 0.000000
-0.022887 0.081426 -0.006599 0.000000 -1.000000 0.000000
-0.020146 0.081426 -0.012662 0.000000 -1.000000 0.000000
-0.015825 0.081426 -0.017700 0.000000 -1.000000 0.000000
-0.010274 0.081426 -0.021305 0.000000 -1.000000 0.000000
-0.003942 0.081426 -0.023183 0.000000 -1.000000 0.000000
0.002656 0.081426 -0.023183 0.000000 -1.000000 0.000000
0.008988 0.081426 -0.021305 -0.000000 -1.000000 0.000000
0.014539 0.081426 -0.017700 -0.000000 -1.000000 0.000000
0.018860 0.081426 -0.012662 -0.000000 -1.000000 0.000000
0.021601 0.081426 -0.006599 -0.000000 -1.000000 0.000000
0.022540 0.081426 0.000000 -0.000000 -1.000000 0.000000
3 0 1 2
3 0 3 1
3 0 4 3
3 0 5 4
3 0 6 5
3 0 7 6
3 0 8 7
3 0 9 8
3 0 10 9
3 0 11 10
3 0 12 11
3 0 13 12
3 0 14 13
3 0 15 14
3 0 16 15
3 0 17 16
3 0 18 17
3 0 19 18
3 0 20 19
3 0 21 20
3 0 22 21
3 0 2 22
3 23 24 25
3 23 25 26
3 23 26 27
3 23 27 28
3 23 28 29
3 23 29 30
3 23 30 31
3 23 31 32
3 23 32 33
3 23 33 34
3 23 34 35
3 23 35 36
3 23 36 37
3 23 37 38
3 23 38 39
3 23 39 40
3 23 40 41
3 23 41 42
3 23 42 43
3 23 43 44
3 23 44 45
3 23 45 24
3 46 47 48
3 47 46 49
3 50 51 52
3 51 50 53
3 54 55 56
3 55 54 57
3 58 59 60
3 59 58 61
3 62 63 64
3 63 62 65
3 66 67 68
3 67 66 69
3 70 71 72
3 71 70 73
3 74 75 76
3 75 74 77
3 78 79 80
3 79 78 81
3 82 83 84
3 83 82 85
3 86 87 88
3 87 86 89
3 90 91 92
3 91 90 93
3 94 95 96
3 95 94 97
3 98 99 100
3 99 98 101
3 102 103 104
3 103 102 105
3 106 107 108
3 107 106 109
3 110 111 112
3 111 110 113
3 114 115 116
3 115 114 117
3 118 119 120
3 119 118 121
3 122 123 124
3 123 122 125
3 126 127 128
3 127 126 129
3 130 131 132
3 131 130 133
3 134 135 136
3 137 138 139
3 140 141 142
3 143 144 145
3 146 147 148
3 149 150 151
3 152 153 154
3 155 156 157
3 158 159 160
3 159 158 161
3 162 163 164
3 165 166 167
3 168 169 170
3 171 172 173
3 174 175 176
3 177 178 179
3 180 181 182
3 183 184 185
3 186 187 188
3 189 190 191
3 192 193 194
3 195 196 197
3 198 199 200
3 201 202 203
3 204 205 206
3 207 208 209
3 210 211 212
3 213 214 215
3 216 217 218
3 219 220 221
3 222 223 224
3 223 222 225
3 226 227 228
3 229 230 231
3 232 233 234
3 235 236 237
3 238 239 240
3 241 242 243
3 244 245 246
3 247 248 249
3 250 251 252
3 253 254 255
3 256 257 258
3 259 260 261
3 262 263 264
3 262 265 263
3 262 266 265
3 262 267 266
3 262 268 267
3 262 269 268
3 262 270 269
3 262 271 270
3 262 272 271
3 262 273 272
3 262 274 273
3 262 275 274
3 262 276 275
3 262 277 276
3 262 278 277
3 262 279 278
3 262 280 279
3 262 281 280
3 262 282 281
3 262 283 282
3 262 284 283
3 262 264 284
3 285 286 287
3 285 287 288
3 285 288 289
3 285 289 290
3 285 290 291
3 285 291 292
3 285 292 293
3 285 293 294
3 285 294 295
3 285 295 296
3 285 296 297
3 285 297 298
3 285 298 299
3 285 299 300
3 285 300 301
3 285 301 302
3 285 302 303
3 285 303 304
3 285 304 305
3 285 305 306
3 285 306 307
3 285 307 286
3 308 309 310
3 309 308 311
3 312 313 314
3 313 312 315
3 316 317 318
3 317 316 319
3 320 321 322
3 321 320 323
3 324 325 326
3 325 324 327
3 328 329 330
3 329 328 331
3 332 333 334
3 333 332 335
3 336 337 338
3 337 336 339
3 340 341 342
3 341 340 343
3 344 345 346
3 345 344 347
3 348 349 350
3 349 348 351
3 352 353 354
3 353 352 355
3 356 357 358
3 357 356 359
3 360 361 362
3 361 360 363
3 364 365 366
3 365 364 367
3 368 369 370
3 369 368 371
3 372 373 374
3 373 372 375
3 376 377 378
3 377 376 379
3 380 381 382
3 381 380 383
3 384 385 386
3 385 384 387
3 388 389 390
3 389 388 391
3 392 393 394
3 393 392 395
3 396 397 398
3 396 399 397
3 396 400 399
3 396 401 400
3 396 402 401
3 396 403 402
3 396 404 403
3 396 405 404
3 396 406 405
3 396 407 406
3 396 408 407
3 396 409 408
3 396 410 409
3 396 411 410
3 396 412 411
3 396 413 412
3 396 414 413
3 396 415 414
3 396 416 415
3 396 417 416
3 396 418 417
3 396 398 418
3 419 420 421
3 419 421 422
3 419 422 423
3 419 423 424
3 419 424 425
3 419 425 426
3 419 426 427
3 419 427 428
3 419 428 429
3 419 429 430
3 419 430 431
3 419 431 432
3 419 432 433
3 419 433 434
3 419 434 435
3 419 435 436
3 419 436 437
3 419 437 438
3 419 438 439
3 419 439 440
3 419 440 441
3 419 441 420
